<svg xmlns="http://www.w3.org/2000/svg" xmlns:xlink="http://www.w3.org/1999/xlink" width="500" zoomAndPan="magnify" viewBox="0 0 375 374.999991" height="500" preserveAspectRatio="xMidYMid meet" version="1.0"><defs><g/><clipPath id="dee861d6f1"><path d="M 114.171875 97.308594 L 261 97.308594 L 261 228.558594 L 114.171875 228.558594 Z M 114.171875 97.308594 " clip-rule="nonzero"/></clipPath></defs><g clip-path="url(#dee861d6f1)"><path fill="#141034" d="M 183.8125 182.585938 L 187.234375 178.695312 C 188.859375 180.671875 191.121094 181.945312 193.792969 182.296875 L 193.792969 201.503906 L 175.105469 212.183594 L 156.476562 222.976562 L 137.847656 212.238281 L 119.21875 201.503906 L 119.21875 158.445312 L 129.492188 152.464844 L 129.492188 146.664062 L 114.171875 155.542969 L 114.171875 204.40625 L 156.476562 228.835938 L 198.78125 204.40625 L 198.78125 181.597656 C 202.4375 180.089844 204.933594 176.492188 204.933594 172.3125 C 204.933594 166.800781 200.40625 162.273438 194.894531 162.273438 C 191.644531 162.273438 188.742188 163.78125 186.886719 166.160156 L 183.40625 162.15625 C 185.898438 160.476562 187.464844 157.746094 187.757812 154.671875 L 199.945312 147.589844 L 218.570312 136.855469 L 237.199219 147.589844 L 255.828125 158.328125 L 255.828125 201.386719 L 237.144531 212.183594 L 218.515625 222.917969 L 199.886719 212.183594 L 196.984375 210.558594 L 191.933594 213.457031 L 218.515625 228.777344 L 260.820312 204.347656 L 260.820312 155.484375 L 218.515625 131.050781 L 186.652344 149.449219 C 185.03125 146.140625 181.605469 143.820312 177.660156 143.820312 C 172.144531 143.820312 167.621094 148.347656 167.621094 153.859375 C 167.621094 159.199219 171.855469 163.667969 177.253906 163.898438 L 177.253906 180.554688 C 173.65625 180.726562 170.636719 182.703125 168.894531 185.660156 L 156.359375 178.40625 L 137.734375 167.671875 L 137.734375 124.609375 L 156.359375 113.875 L 174.988281 103.136719 L 193.617188 113.875 L 212.246094 124.609375 L 212.246094 130.820312 L 217.296875 127.917969 L 217.296875 121.710938 L 175.046875 97.394531 L 132.742188 121.824219 L 132.742188 170.6875 L 167.621094 190.882812 C 167.675781 196.398438 172.144531 200.867188 177.660156 200.867188 C 183.171875 200.867188 187.699219 196.339844 187.699219 190.824219 C 187.816406 187.34375 186.191406 184.441406 183.8125 182.585938 Z M 186.710938 177.941406 L 183.113281 182.003906 C 181.664062 181.078125 180.039062 180.554688 178.238281 180.496094 L 178.238281 163.898438 C 179.863281 163.839844 181.375 163.375 182.765625 162.621094 L 186.539062 166.859375 C 185.492188 168.367188 185.03125 170.28125 185.03125 172.199219 C 184.914062 174.402344 185.609375 176.375 186.710938 177.941406 Z M 186.710938 177.941406 " fill-opacity="1" fill-rule="evenodd"/></g><g fill="#141034" fill-opacity="1"><g transform="translate(89.51299, 262.989153)"><g><path d="M 24.65625 0 L 19.25 0 L 8.15625 -14.84375 L 8.15625 0 L 2.40625 0 L 2.40625 -24.109375 L 7.8125 -24.109375 L 18.9375 -9.234375 L 18.9375 -24.109375 L 24.65625 -24.109375 Z M 24.65625 0 "/></g></g></g><g fill="#141034" fill-opacity="1"><g transform="translate(117.263575, 262.989153)"><g><path d="M 10.5 -18.765625 C 13.71875 -18.765625 16.132812 -17.773438 17.75 -15.796875 C 19.375 -13.828125 20.082031 -11.117188 19.875 -7.671875 L 6.8125 -7.671875 C 7.113281 -6.578125 7.644531 -5.726562 8.40625 -5.125 C 9.164062 -4.53125 10.09375 -4.234375 11.1875 -4.234375 C 12.882812 -4.234375 14.367188 -4.863281 15.640625 -6.125 L 18.765625 -3.0625 C 16.765625 -0.882812 14.066406 0.203125 10.671875 0.203125 C 7.671875 0.203125 5.28125 -0.65625 3.5 -2.375 C 1.71875 -4.09375 0.828125 -6.378906 0.828125 -9.234375 C 0.828125 -12.097656 1.71875 -14.398438 3.5 -16.140625 C 5.28125 -17.890625 7.613281 -18.765625 10.5 -18.765625 Z M 6.71875 -10.875 L 14.15625 -10.875 C 14.15625 -12 13.828125 -12.90625 13.171875 -13.59375 C 12.515625 -14.289062 11.648438 -14.640625 10.578125 -14.640625 C 9.566406 -14.640625 8.710938 -14.300781 8.015625 -13.625 C 7.328125 -12.945312 6.894531 -12.03125 6.71875 -10.875 Z M 6.71875 -10.875 "/></g></g></g><g fill="#141034" fill-opacity="1"><g transform="translate(138.679089, 262.989153)"><g><path d="M 20.453125 -18.5625 L 20.453125 0 L 14.5 0 L 14.5 -3.0625 C 13.238281 -0.863281 11.226562 0.234375 8.46875 0.234375 C 6.445312 0.234375 4.832031 -0.40625 3.625 -1.6875 C 2.425781 -2.96875 1.828125 -4.691406 1.828125 -6.859375 L 1.828125 -18.5625 L 7.78125 -18.5625 L 7.78125 -8.546875 C 7.78125 -7.441406 8.0625 -6.570312 8.625 -5.9375 C 9.1875 -5.3125 9.9375 -5 10.875 -5 C 12 -5.019531 12.882812 -5.4375 13.53125 -6.25 C 14.175781 -7.0625 14.5 -8.113281 14.5 -9.40625 L 14.5 -18.5625 Z M 20.453125 -18.5625 "/></g></g></g><g fill="#141034" fill-opacity="1"><g transform="translate(162.194825, 262.989153)"><g><path d="M 8.328125 -18.5625 L 8.328125 -15.421875 C 9.640625 -17.648438 11.648438 -18.789062 14.359375 -18.84375 L 14.359375 -13.46875 C 12.660156 -13.625 11.269531 -13.335938 10.1875 -12.609375 C 9.113281 -11.890625 8.492188 -10.867188 8.328125 -9.546875 L 8.328125 0 L 2.375 0 L 2.375 -18.5625 Z M 8.328125 -18.5625 "/></g></g></g><g fill="#141034" fill-opacity="1"><g transform="translate(177.585136, 262.989153)"><g><path d="M 10.703125 -18.84375 C 13.253906 -18.84375 15.234375 -18.25 16.640625 -17.0625 C 18.054688 -15.882812 18.773438 -14.238281 18.796875 -12.125 L 18.796875 0 L 12.984375 0 L 12.984375 -2.140625 C 11.765625 -0.523438 9.867188 0.28125 7.296875 0.28125 C 5.347656 0.28125 3.800781 -0.257812 2.65625 -1.34375 C 1.507812 -2.425781 0.9375 -3.828125 0.9375 -5.546875 C 0.9375 -7.316406 1.546875 -8.6875 2.765625 -9.65625 C 3.992188 -10.632812 5.757812 -11.132812 8.0625 -11.15625 L 12.953125 -11.15625 L 12.953125 -11.4375 C 12.953125 -12.351562 12.644531 -13.066406 12.03125 -13.578125 C 11.425781 -14.097656 10.523438 -14.359375 9.328125 -14.359375 C 7.648438 -14.359375 5.800781 -13.84375 3.78125 -12.8125 L 2.09375 -16.734375 C 5.101562 -18.140625 7.972656 -18.84375 10.703125 -18.84375 Z M 9.125 -3.75 C 10.0625 -3.75 10.882812 -3.984375 11.59375 -4.453125 C 12.3125 -4.929688 12.765625 -5.546875 12.953125 -6.296875 L 12.953125 -7.953125 L 9.1875 -7.953125 C 7.40625 -7.953125 6.515625 -7.285156 6.515625 -5.953125 C 6.515625 -5.265625 6.742188 -4.722656 7.203125 -4.328125 C 7.660156 -3.941406 8.300781 -3.75 9.125 -3.75 Z M 9.125 -3.75 "/></g></g></g><g fill="#141034" fill-opacity="1"><g transform="translate(198.931788, 262.989153)"><g><path d="M 20.828125 -19.1875 L 13.5625 -19.1875 L 13.5625 0 L 7.4375 0 L 7.4375 -19.1875 L 0.234375 -19.1875 L 0.234375 -24.140625 L 20.828125 -24.140625 Z M 20.828125 -19.1875 "/></g></g></g><g fill="#141034" fill-opacity="1"><g transform="translate(220.65717, 262.989153)"><g><path d="M 10.5 -18.765625 C 13.71875 -18.765625 16.132812 -17.773438 17.75 -15.796875 C 19.375 -13.828125 20.082031 -11.117188 19.875 -7.671875 L 6.8125 -7.671875 C 7.113281 -6.578125 7.644531 -5.726562 8.40625 -5.125 C 9.164062 -4.53125 10.09375 -4.234375 11.1875 -4.234375 C 12.882812 -4.234375 14.367188 -4.863281 15.640625 -6.125 L 18.765625 -3.0625 C 16.765625 -0.882812 14.066406 0.203125 10.671875 0.203125 C 7.671875 0.203125 5.28125 -0.65625 3.5 -2.375 C 1.71875 -4.09375 0.828125 -6.378906 0.828125 -9.234375 C 0.828125 -12.097656 1.71875 -14.398438 3.5 -16.140625 C 5.28125 -17.890625 7.613281 -18.765625 10.5 -18.765625 Z M 6.71875 -10.875 L 14.15625 -10.875 C 14.15625 -12 13.828125 -12.90625 13.171875 -13.59375 C 12.515625 -14.289062 11.648438 -14.640625 10.578125 -14.640625 C 9.566406 -14.640625 8.710938 -14.300781 8.015625 -13.625 C 7.328125 -12.945312 6.894531 -12.03125 6.71875 -10.875 Z M 6.71875 -10.875 "/></g></g></g><g fill="#141034" fill-opacity="1"><g transform="translate(242.07268, 262.989153)"><g><path d="M 10.46875 -18.765625 C 12.300781 -18.765625 13.9375 -18.398438 15.375 -17.671875 C 16.8125 -16.953125 17.929688 -15.925781 18.734375 -14.59375 L 14.46875 -12.015625 C 13.550781 -13.304688 12.296875 -13.953125 10.703125 -13.953125 C 9.554688 -13.953125 8.617188 -13.519531 7.890625 -12.65625 C 7.171875 -11.789062 6.8125 -10.660156 6.8125 -9.265625 C 6.8125 -7.835938 7.164062 -6.691406 7.875 -5.828125 C 8.59375 -4.972656 9.535156 -4.546875 10.703125 -4.546875 C 12.453125 -4.546875 13.71875 -5.242188 14.5 -6.640625 L 18.84375 -4.09375 C 18.082031 -2.71875 16.972656 -1.65625 15.515625 -0.90625 C 14.054688 -0.164062 12.351562 0.203125 10.40625 0.203125 C 7.53125 0.203125 5.210938 -0.660156 3.453125 -2.390625 C 1.703125 -4.128906 0.828125 -6.410156 0.828125 -9.234375 C 0.828125 -12.078125 1.71875 -14.375 3.5 -16.125 C 5.28125 -17.882812 7.601562 -18.765625 10.46875 -18.765625 Z M 10.46875 -18.765625 "/></g></g></g><g fill="#141034" fill-opacity="1"><g transform="translate(262.111009, 262.989153)"><g><path d="M 14.734375 -18.84375 C 16.773438 -18.84375 18.414062 -18.191406 19.65625 -16.890625 C 20.894531 -15.597656 21.515625 -13.867188 21.515625 -11.703125 L 21.515625 0 L 15.5625 0 L 15.5625 -10.0625 C 15.5625 -11.132812 15.269531 -11.984375 14.6875 -12.609375 C 14.101562 -13.242188 13.304688 -13.5625 12.296875 -13.5625 C 11.148438 -13.5625 10.226562 -13.148438 9.53125 -12.328125 C 8.84375 -11.503906 8.5 -10.445312 8.5 -9.15625 L 8.5 0 L 2.546875 0 L 2.546875 -25.546875 L 8.5 -25.546875 L 8.5 -15.5 C 9.8125 -17.675781 11.890625 -18.789062 14.734375 -18.84375 Z M 14.734375 -18.84375 "/></g></g></g></svg>